<svg width="730" height="177" viewBox="0 0 730 177" fill="none" xmlns="http://www.w3.org/2000/svg">
<path d="M115.852 103.952C115.852 111.711 109.544 118 101.762 118C93.9801 118 87.6717 111.711 87.6717 103.952C87.6717 96.1941 93.9801 89.9048 101.762 89.9048C109.544 89.9048 115.852 96.1941 115.852 103.952Z" fill="#C026D3"/>
<path fill-rule="evenodd" clip-rule="evenodd" d="M205 177L102.5 0L0 177H205ZM185.977 167.791L102.187 23.1005L18.3972 167.791H185.977Z" fill="#C026D3"/>
<path d="M102.075 132.36L192.644 169.82H11.5061L102.075 132.36Z" fill="#C026D3"/>
<path d="M187.721 169.953L102.923 22.4761L91.5136 28.9968L176.312 176.474L187.721 169.953Z" fill="#C026D3"/>
<path d="M15.6557 169.953L100.455 22.4761L111.864 28.9968L27.0647 176.474L15.6557 169.953Z" fill="#C026D3"/>
<path d="M217 175.04V152.48L293.32 62.24L299.8 74.72H218.68V45.92H330.04V68.48L253.72 158.72L247 146.24H332.2V175.04H217Z" fill="white"/>
<path d="M410.673 176.96C399.952 176.96 390.352 174.88 381.872 170.72C373.552 166.56 367.072 160.24 362.432 151.76C357.792 143.12 355.473 132.16 355.473 118.88V45.92H392.913V113.36C392.913 124.08 395.153 132 399.633 137.12C404.273 142.08 410.753 144.56 419.073 144.56C424.833 144.56 429.953 143.36 434.433 140.96C438.913 138.4 442.433 134.56 444.993 129.44C447.553 124.16 448.833 117.6 448.833 109.76V45.92H486.272V175.04H450.753V139.52L457.233 149.84C452.913 158.8 446.513 165.6 438.033 170.24C429.713 174.72 420.593 176.96 410.673 176.96Z" fill="white"/>
<path d="M520.958 175.04V45.92H556.718V82.4L551.678 71.84C555.518 62.72 561.678 55.84 570.158 51.2C578.638 46.4 588.958 44 601.118 44V78.56C599.518 78.4 598.078 78.32 596.798 78.32C595.518 78.16 594.158 78.08 592.718 78.08C582.478 78.08 574.158 81.04 567.758 86.96C561.518 92.72 558.398 101.76 558.398 114.08V175.04H520.958Z" fill="white"/>
<path d="M694.143 175.04V149.84L691.742 144.32V99.2C691.742 91.2 689.263 84.96 684.303 80.48C679.503 76 672.063 73.76 661.983 73.76C655.103 73.76 648.302 74.88 641.582 77.12C635.022 79.2 629.423 82.08 624.783 85.76L611.342 59.6C618.382 54.64 626.863 50.8 636.783 48.08C646.703 45.36 656.782 44 667.022 44C686.702 44 701.983 48.64 712.863 57.92C723.743 67.2 729.182 81.68 729.182 101.36V175.04H694.143ZM654.783 176.96C644.703 176.96 636.062 175.28 628.862 171.92C621.662 168.4 616.142 163.68 612.302 157.76C608.462 151.84 606.543 145.2 606.543 137.84C606.543 130.16 608.382 123.44 612.062 117.68C615.903 111.92 621.903 107.44 630.062 104.24C638.222 100.88 648.863 99.2 661.983 99.2H696.302V121.04H666.062C657.262 121.04 651.183 122.48 647.823 125.36C644.623 128.24 643.022 131.84 643.022 136.16C643.022 140.96 644.863 144.8 648.543 147.68C652.383 150.4 657.583 151.76 664.143 151.76C670.383 151.76 675.983 150.32 680.943 147.44C685.903 144.4 689.502 140 691.742 134.24L697.503 151.52C694.783 159.84 689.823 166.16 682.622 170.48C675.422 174.8 666.143 176.96 654.783 176.96Z" fill="white"/>
</svg>
