<svg width="480" height="480" viewBox="0 0 480 480" fill="none" xmlns="http://www.w3.org/2000/svg">
<rect x="190" y="80" width="100" height="330" rx="2" fill="#5872FF"/>
<rect x="80" y="290" width="100" height="320" rx="2" transform="rotate(-90 80 290)" fill="#5872FF"/>
<path d="M480 402.6C480 445.346 445.347 479.999 402.601 479.999C359.854 479.999 325.201 445.346 325.201 402.6C325.201 359.853 359.854 325.2 402.601 325.2C445.347 325.2 480 359.853 480 402.6ZM363.901 402.6C363.901 423.973 381.228 441.299 402.601 441.299C423.974 441.299 441.3 423.973 441.3 402.6C441.3 381.226 423.974 363.9 402.601 363.9C381.228 363.9 363.901 381.226 363.901 402.6Z" fill="#5872FF"/>
<path d="M154.799 402.6C154.799 445.346 120.146 479.999 77.3994 479.999C34.6529 479.999 0 445.346 0 402.6C0 359.853 34.6529 325.2 77.3994 325.2C120.146 325.2 154.799 359.853 154.799 402.6ZM38.6997 402.6C38.6997 423.973 56.0261 441.299 77.3994 441.299C98.7726 441.299 116.099 423.973 116.099 402.6C116.099 381.226 98.7726 363.9 77.3994 363.9C56.0261 363.9 38.6997 381.226 38.6997 402.6Z" fill="#5872FF"/>
<path d="M154.799 77.3994C154.799 120.146 120.146 154.799 77.3994 154.799C34.6529 154.799 0 120.146 0 77.3994C0 34.6529 34.6529 0 77.3994 0C120.146 0 154.799 34.6529 154.799 77.3994ZM38.6997 77.3994C38.6997 98.7726 56.0261 116.099 77.3994 116.099C98.7726 116.099 116.099 98.7726 116.099 77.3994C116.099 56.0261 98.7726 38.6997 77.3994 38.6997C56.0261 38.6997 38.6997 56.0261 38.6997 77.3994Z" fill="#5872FF"/>
<path d="M480 77.3994C480 120.146 445.347 154.799 402.601 154.799C359.854 154.799 325.201 120.146 325.201 77.3994C325.201 34.6529 359.854 0 402.601 0C445.347 0 480 34.6529 480 77.3994ZM363.901 77.3994C363.901 98.7726 381.228 116.099 402.601 116.099C423.974 116.099 441.3 98.7726 441.3 77.3994C441.3 56.0261 423.974 38.6997 402.601 38.6997C381.228 38.6997 363.901 56.0261 363.901 77.3994Z" fill="#5872FF"/>
</svg>
