<?xml version="1.0" standalone="no"?>
<!DOCTYPE svg PUBLIC "-//W3C//DTD SVG 20010904//EN"
 "http://www.w3.org/TR/2001/REC-SVG-20010904/DTD/svg10.dtd">
<svg version="1.0" xmlns="http://www.w3.org/2000/svg"
 width="512.000000pt" height="512.000000pt" viewBox="0 0 512.000000 512.000000"
 preserveAspectRatio="xMidYMid meet">

<g transform="translate(0.000000,512.000000) scale(0.100000,-0.100000)"
fill="#000000" stroke="none">
<path d="M2320 5078 c-376 -34 -764 -164 -1095 -365 -323 -197 -651 -526 -851
-853 -389 -639 -478 -1410 -244 -2120 127 -387 334 -724 625 -1016 312 -313
694 -538 1119 -659 123 -35 160 -40 196 -25 58 24 60 36 60 394 l0 325 -24 28
-24 28 -174 6 c-141 5 -184 10 -233 27 -131 48 -247 153 -408 367 -53 72 -97
133 -97 138 0 10 63 -31 210 -136 135 -97 206 -136 289 -161 71 -21 213 -21
273 0 61 20 123 75 155 138 23 44 28 66 31 162 4 111 4 111 -24 141 -21 22
-59 41 -137 67 -363 122 -660 367 -802 660 -75 156 -90 224 -89 416 0 150 3
173 27 253 46 149 115 271 236 415 40 49 61 83 61 100 0 14 -12 60 -27 101
-50 142 -31 389 36 472 l19 24 59 -29 c98 -48 186 -110 274 -193 47 -44 97
-83 112 -86 17 -5 58 3 120 23 367 117 768 117 1135 -1 57 -18 106 -28 120
-24 13 3 61 41 106 83 88 84 186 153 279 198 l59 29 19 -24 c67 -83 86 -330
36 -472 -15 -41 -27 -87 -27 -101 0 -17 21 -51 61 -100 178 -213 256 -394 266
-620 14 -307 -94 -559 -341 -796 -178 -170 -395 -289 -671 -367 -140 -39 -161
-79 -109 -205 53 -131 56 -166 61 -705 2 -329 8 -510 15 -528 15 -39 61 -61
112 -54 127 18 404 117 592 212 247 124 455 275 654 475 409 409 661 918 741
1500 21 144 17 517 -5 665 -23 153 -83 391 -130 520 -46 124 -168 375 -232
475 -196 309 -466 586 -769 788 -130 87 -391 218 -541 271 -353 125 -735 174
-1104 139z m520 -219 c406 -48 798 -207 1140 -463 110 -82 331 -298 414 -404
463 -589 620 -1329 435 -2049 -78 -304 -244 -632 -450 -888 -82 -102 -242
-262 -342 -344 -200 -162 -484 -320 -719 -400 l-116 -40 -5 442 c-4 442 -5
454 -42 597 -6 24 -2 26 79 54 158 54 349 154 481 254 500 378 679 956 456
1472 -43 100 -114 218 -178 297 l-43 53 17 58 c14 44 18 92 18 207 0 129 -3
160 -23 225 -47 148 -132 278 -196 300 -30 9 -45 7 -113 -15 -132 -44 -299
-145 -405 -243 -54 -50 -51 -50 -183 -13 -167 45 -260 56 -505 56 -251 0 -312
-7 -532 -62 l-108 -27 -42 41 c-103 99 -309 220 -440 258 -50 14 -60 14 -91 1
-73 -30 -172 -203 -203 -356 -20 -102 -15 -296 11 -378 l16 -53 -30 -35 c-122
-138 -223 -347 -267 -549 -22 -106 -23 -331 0 -435 101 -464 445 -837 956
-1036 84 -32 85 -33 83 -66 -3 -53 -34 -71 -114 -66 -89 7 -155 39 -313 152
-263 189 -390 242 -636 266 -90 9 -114 9 -143 -4 -94 -39 -84 -170 15 -196
102 -27 144 -66 299 -280 170 -235 258 -335 364 -420 137 -108 246 -149 418
-157 l117 -6 0 -168 0 -168 -117 40 c-239 81 -520 238 -720 400 -101 82 -260
243 -342 344 -696 865 -702 2063 -15 2937 136 174 403 410 605 535 441 275
986 394 1509 332z"/>
</g>
</svg>
