<svg width="32" height="14" viewBox="0 0 32 14" fill="none" xmlns="http://www.w3.org/2000/svg">
<path d="M4.04 0.0439994V1.7H2.36V11.84H4.04V13.508H0.44V0.0439994H4.04ZM31.8284 13.508H28.2284V11.84H29.9084V1.7H28.2284V0.0439994H31.8284V13.508Z" fill="white"/>
<path d="M10.1572 11L8.40519 7.82H7.91319V11H5.86119V2.576H9.30519C9.96919 2.576 10.5332 2.692 10.9972 2.924C11.4692 3.156 11.8212 3.476 12.0532 3.884C12.2852 4.284 12.4012 4.732 12.4012 5.228C12.4012 5.788 12.2412 6.288 11.9212 6.728C11.6092 7.168 11.1452 7.48 10.5292 7.664L12.4732 11H10.1572ZM7.91319 6.368H9.18519C9.56119 6.368 9.84119 6.276 10.0252 6.092C10.2172 5.908 10.3132 5.648 10.3132 5.312C10.3132 4.992 10.2172 4.74 10.0252 4.556C9.84119 4.372 9.56119 4.28 9.18519 4.28H7.91319V6.368ZM16.7013 9.08L18.1533 4.304H20.3373L17.9613 11H15.4293L13.0533 4.304H15.2493L16.7013 9.08ZM23.925 11.096C23.341 11.096 22.821 10.996 22.365 10.796C21.909 10.596 21.549 10.324 21.285 9.98C21.021 9.628 20.873 9.236 20.841 8.804H22.869C22.893 9.036 23.001 9.224 23.193 9.368C23.385 9.512 23.621 9.584 23.901 9.584C24.157 9.584 24.353 9.536 24.489 9.44C24.633 9.336 24.705 9.204 24.705 9.044C24.705 8.852 24.605 8.712 24.405 8.624C24.205 8.528 23.881 8.424 23.433 8.312C22.953 8.2 22.553 8.084 22.233 7.964C21.913 7.836 21.637 7.64 21.405 7.376C21.173 7.104 21.057 6.74 21.057 6.284C21.057 5.9 21.161 5.552 21.369 5.24C21.585 4.92 21.897 4.668 22.305 4.484C22.721 4.3 23.213 4.208 23.781 4.208C24.621 4.208 25.281 4.416 25.761 4.832C26.249 5.248 26.529 5.8 26.601 6.488H24.705C24.673 6.256 24.569 6.072 24.393 5.936C24.225 5.8 24.001 5.732 23.721 5.732C23.481 5.732 23.297 5.78 23.169 5.876C23.041 5.964 22.977 6.088 22.977 6.248C22.977 6.44 23.077 6.584 23.277 6.68C23.485 6.776 23.805 6.872 24.237 6.968C24.733 7.096 25.137 7.224 25.449 7.352C25.761 7.472 26.033 7.672 26.265 7.952C26.505 8.224 26.629 8.592 26.637 9.056C26.637 9.448 26.525 9.8 26.301 10.112C26.085 10.416 25.769 10.656 25.353 10.832C24.945 11.008 24.469 11.096 23.925 11.096Z" fill="#61DAFB"/>
</svg>
