<svg width="46" height="36" viewBox="0 0 46 36" fill="none" xmlns="http://www.w3.org/2000/svg">
<path fill-rule="evenodd" clip-rule="evenodd" d="M45.198 16.5928C46.5497 21.6376 46.0158 26.7501 44.0241 31.1704L42.8874 33.6969C42.3611 34.8643 40.6457 34.6585 40.4105 33.4019L39.8975 30.6791C39.6036 29.129 39.105 27.6249 38.4148 26.2062C37.2942 28.3195 35.7496 30.1788 33.8776 31.6679C32.0055 33.1569 29.8464 34.2436 27.5351 34.86C15.9112 37.9747 3.96394 31.0769 0.849305 19.4529C-0.456756 14.6052 -0.0424695 9.45463 2.02165 4.87795L3.16041 2.3509C3.68674 1.1835 5.40213 1.38932 5.63732 2.64591L6.15035 5.36874C6.44274 6.91454 6.95491 8.45558 7.63308 9.84162C8.75325 7.7279 10.2976 5.86814 12.1696 4.37872C14.0415 2.8893 16.2008 1.80228 18.5121 1.18569C30.1361 -1.92894 42.0839 4.97091 45.198 16.5928ZM40.9887 17.7206C39.7922 13.2551 36.8707 9.44787 32.8671 7.13636C28.8634 4.82485 24.1055 4.19845 19.64 5.39498C17.3411 6.01039 15.2538 7.24164 13.6032 8.95598C11.9525 10.6703 10.8011 12.8027 10.2732 15.1232L9.87886 16.8508C9.82256 17.0893 9.70119 17.3075 9.52824 17.4812C9.3553 17.6549 9.13757 17.7772 8.89927 17.8345C8.66098 17.8918 8.41145 17.8819 8.17845 17.8058C7.94546 17.7298 7.73813 17.5906 7.57953 17.4037C6.45171 16.057 5.35614 14.679 4.47177 13.1632C4.36974 15.8906 4.90954 18.6037 6.04771 21.0843C7.18588 23.5648 8.89062 25.7435 11.0247 27.4448C13.1587 29.1461 15.6624 30.3225 18.3342 30.8794C21.006 31.4362 23.7713 31.3579 26.4073 30.6507C28.706 30.0356 30.7932 28.8047 32.444 27.0907C34.0947 25.3768 35.2463 23.2448 35.7747 20.9246L36.169 19.197C36.2253 18.9585 36.3467 18.7403 36.5196 18.5666C36.6925 18.3929 36.9103 18.2706 37.1486 18.2133C37.3869 18.156 37.6364 18.166 37.8694 18.242C38.1024 18.3181 38.3097 18.4572 38.4683 18.6441C39.5961 19.9909 40.6917 21.3688 41.5761 22.8846C41.6394 21.1436 41.4414 19.4029 40.9887 17.7206ZM29.3376 16.331C29.7863 18.0056 29.5514 19.7898 28.6846 21.2912C27.8178 22.7926 26.39 23.8881 24.7155 24.3368C23.0409 24.7855 21.2567 24.5506 19.7553 23.6838C18.2539 22.817 17.1584 21.3892 16.7097 19.7147C16.261 18.0401 16.4959 16.2559 17.3627 14.7545C18.2295 13.2532 19.6573 12.1576 21.3318 11.7089C23.0064 11.2602 24.7906 11.4951 26.292 12.3619C27.7933 13.2288 28.8889 14.6565 29.3376 16.331ZM25.1283 17.4589C24.9787 16.9007 24.6135 16.4248 24.1131 16.1359C23.6126 15.8469 23.0179 15.7686 22.4597 15.9182C21.9015 16.0678 21.4256 16.433 21.1367 16.9334C20.8477 17.4339 20.7694 18.0286 20.919 18.5868C21.0686 19.145 21.4337 19.6209 21.9342 19.9098C22.4347 20.1988 23.0294 20.2771 23.5876 20.1275C24.1458 19.9779 24.6217 19.6128 24.9106 19.1123C25.1996 18.6118 25.2779 18.0171 25.1283 17.4589Z" fill="#0090D9"/>
</svg>
